<svg version="1.1" id="Layer_1" xmlns="http://www.w3.org/2000/svg" xmlns:xlink="http://www.w3.org/1999/xlink" x="0px" y="0px"
	 width="100%" viewBox="0 0 652 661" enable-background="new 0 0 652 661" xml:space="preserve">
<path fill="#FFFFFE" opacity="1.000000" stroke="none" 
	d="
M435.000000,662.000000 
	C290.000000,662.000000 145.500000,662.000000 1.000000,662.000000 
	C1.000000,441.666656 1.000000,221.333328 1.000000,1.000000 
	C218.333328,1.000000 435.666656,1.000000 653.000000,1.000000 
	C653.000000,221.333328 653.000000,441.666656 653.000000,662.000000 
	C580.500000,662.000000 508.000000,662.000000 435.000000,662.000000 
M550.876770,344.854828 
	C550.876770,344.854828 550.940308,344.601013 551.472717,344.315002 
	C552.128784,343.442871 552.784912,342.570770 553.441040,341.698669 
	C552.576477,341.768494 551.711975,341.838318 550.121094,341.986786 
	C549.060120,342.473358 547.999084,342.959930 546.093506,343.614471 
	C543.381836,343.351532 540.670227,343.088593 537.513000,342.307281 
	C537.303345,342.218018 537.093750,342.128784 536.720947,341.480988 
	C536.154480,340.969788 535.588074,340.458557 534.858582,339.226196 
	C534.576660,338.825531 534.294739,338.424866 534.113892,337.480347 
	C533.804810,336.824524 533.495728,336.168701 533.300720,334.978668 
	C533.172302,334.643646 533.043823,334.308624 533.170654,333.070648 
	C534.427856,332.368347 535.643433,331.169342 536.950195,331.059998 
	C540.400208,330.771393 543.889832,330.953522 547.363647,330.951538 
	C554.154358,330.947601 554.660583,330.166046 552.167847,322.823914 
	C551.560364,321.899200 550.952881,320.974487 550.280457,319.452606 
	C543.882019,313.583801 534.435303,314.785645 529.372070,322.487610 
	C529.215515,322.914764 529.058960,323.341949 528.383545,324.163147 
	C527.942749,326.435028 527.502014,328.706940 526.844055,331.726562 
	C526.923096,332.492737 527.002075,333.258881 526.829895,334.507141 
	C527.146423,335.532013 527.462891,336.556915 527.732788,338.259033 
	C529.479370,340.509644 531.226013,342.760254 533.169739,345.518402 
	C533.789612,345.888153 534.409546,346.257904 535.570740,347.077332 
	C536.265747,347.099670 536.960815,347.121979 538.024658,347.382568 
	C538.500549,347.258148 538.976501,347.133698 540.068481,347.757874 
	C543.207458,346.844452 546.346497,345.931061 549.618469,345.358124 
	C549.951050,345.198059 550.283569,345.037994 550.876770,344.854828 
M185.680450,317.839966 
	C185.680450,317.839966 185.696716,318.115784 184.937332,318.069397 
	C183.645813,318.780640 182.354294,319.491913 180.518600,320.290283 
	C180.131805,320.866821 179.744995,321.443359 178.878784,322.480072 
	C178.853287,323.308807 178.827789,324.137543 178.678177,325.532867 
	C180.756210,325.686523 182.834259,325.840179 185.416092,325.488190 
	C185.369705,324.566559 185.323334,323.644928 185.820465,322.065613 
	C188.557098,321.774689 191.293732,321.483734 194.373611,321.882263 
	C194.667892,322.583923 194.962158,323.285614 195.061096,324.821747 
	C195.660614,328.112366 194.796997,330.248810 191.014526,330.621216 
	C188.768723,330.842316 186.565765,331.533997 184.353958,332.057922 
	C179.084610,333.306152 175.759567,338.752014 177.146301,343.824493 
	C178.501434,348.781433 182.904999,350.796814 188.612381,349.049408 
	C190.752502,348.394196 192.877487,347.689545 195.170044,347.323120 
	C195.458023,347.295563 195.745987,347.268036 196.401855,347.446564 
	C196.401855,347.446564 196.797943,347.591217 196.998642,348.370239 
	C200.031815,348.644257 203.064987,348.918274 206.098160,349.192291 
	C206.460495,348.672638 206.822830,348.152954 207.185165,347.633301 
	C200.509796,346.014221 202.076797,341.240753 202.007462,337.123291 
	C201.946335,333.493134 202.014664,329.860931 201.971466,326.230316 
	C201.927124,322.504700 200.653244,319.452759 197.007935,317.209259 
	C196.337372,317.168427 195.666824,317.127563 194.124771,317.049469 
	C192.093567,317.078491 190.062363,317.107513 187.797501,316.663849 
	C187.151733,316.985931 186.505951,317.307983 185.680450,317.839966 
M474.800079,321.025604 
	C475.571838,320.439789 476.343597,319.853973 477.802216,319.177704 
	C478.490509,319.223938 479.178772,319.270203 480.050476,319.918488 
	C480.983826,320.309540 481.917145,320.700562 483.320007,321.698059 
	C483.723877,323.985046 485.882202,326.636353 481.726624,327.597351 
	C481.109619,327.959076 480.492615,328.320801 479.262939,328.855927 
	C478.844421,328.926270 478.425934,328.996643 477.612579,328.598663 
	C476.040222,329.319397 474.467834,330.040131 472.224762,330.936615 
	C471.139313,331.619751 470.053833,332.302887 468.399902,333.168304 
	C467.937653,333.789185 467.475403,334.410065 466.364380,335.341156 
	C464.889954,339.235931 465.027100,342.915710 468.239777,345.903198 
	C471.702576,349.123383 475.695557,348.398682 479.402222,346.576691 
	C481.583496,345.504425 482.813660,345.364105 485.242096,346.631439 
	C487.643311,347.884552 491.209534,346.905304 494.264740,346.905304 
	C494.716583,346.321716 495.168427,345.738129 495.620270,345.154510 
	C488.121368,344.232147 490.321442,339.354950 490.140808,335.539703 
	C489.967896,331.887390 490.165649,328.218933 490.067230,324.561188 
	C489.971741,321.013031 488.842468,317.886810 485.153137,316.657532 
	C479.629120,314.816864 474.186279,315.428497 469.490723,318.813873 
	C468.131531,319.793823 467.962158,322.424103 467.247375,324.297821 
	C469.360474,324.191193 471.473541,324.084564 473.932739,323.311523 
	C474.012115,322.566437 474.091492,321.821381 474.800079,321.025604 
M427.262177,415.901215 
	C419.234741,425.226776 411.198853,434.545135 403.199768,443.894958 
	C402.693359,444.486908 402.473389,445.323975 401.642029,446.247833 
	C401.436218,446.518433 401.230438,446.789032 400.332642,447.140045 
	C395.810974,451.051636 391.289307,454.963226 386.148132,459.054169 
	C385.793549,459.292938 385.438934,459.531708 384.450226,459.542603 
	C381.627106,461.691589 378.803986,463.840576 375.487823,466.139099 
	C375.345795,466.235687 375.203766,466.332245 374.464783,466.329041 
	C373.952576,466.874115 373.440338,467.419189 372.314575,468.190735 
	C371.567535,468.636902 370.820496,469.083099 369.397705,469.394714 
	C367.619202,470.604309 365.840698,471.813934 363.531708,473.146179 
	C363.373230,473.234619 363.214722,473.323059 362.334534,473.277069 
	C357.264069,475.869110 352.193573,478.461182 346.391754,481.162842 
	C345.953644,481.382904 345.515533,481.602966 344.389923,481.531219 
	C337.468536,483.950806 330.547150,486.370392 323.077942,488.764832 
	C322.720154,488.836029 322.362396,488.907257 321.495117,488.558746 
	C319.224365,489.313263 316.953613,490.067749 314.112457,490.793365 
	C313.739777,490.866272 313.367096,490.939178 312.408325,490.522827 
	C310.608734,490.614105 308.810059,490.757721 307.009430,490.788391 
	C293.807983,491.013214 280.602539,491.485046 267.405945,491.309326 
	C260.949707,491.223389 254.509628,489.919922 247.463455,488.977539 
	C247.047379,488.944153 246.631317,488.910736 245.856674,488.264435 
	C236.318741,484.926270 226.683563,481.837067 217.277008,478.162537 
	C210.995392,475.708740 205.039169,472.421936 198.475693,469.197632 
	C198.300003,469.138367 198.124313,469.079132 197.791656,468.380341 
	C195.505234,467.121216 193.218826,465.862091 190.508118,464.240021 
	C190.340652,464.158813 190.173203,464.077576 189.881195,463.363251 
	C188.893906,462.779938 187.906601,462.196625 186.504410,461.238678 
	C186.336548,461.157776 186.168701,461.076843 185.877701,460.362549 
	C184.890930,459.772217 183.904175,459.181854 182.462433,458.111115 
	C181.909821,457.765198 181.357208,457.419281 180.746185,456.479889 
	C180.140152,456.157745 179.534103,455.835632 178.513809,455.051270 
	C178.008194,454.701111 177.502594,454.350922 176.883774,453.340851 
	C175.236160,452.004272 173.588547,450.667694 171.589615,449.058777 
	C171.589615,449.058777 171.169617,448.913208 170.977295,448.283600 
	C169.992050,447.508057 169.006821,446.732513 167.722672,445.377472 
	C166.366608,443.936920 165.010559,442.496399 163.676163,440.460541 
	C163.098145,440.025452 162.520111,439.590363 161.717377,438.592865 
	C161.119110,438.072327 160.520844,437.551788 159.834244,436.352509 
	C157.889008,434.242035 155.943756,432.131531 153.573944,429.499695 
	C152.500504,428.024963 151.427063,426.550232 150.515137,424.511597 
	C149.995636,424.044495 149.476151,423.577362 148.698639,422.556519 
	C148.569397,422.399139 148.440140,422.241791 148.514740,421.469055 
	C147.394104,420.218048 146.273468,418.967041 145.056595,417.341553 
	C145.056595,417.341553 144.825104,417.031921 144.804413,416.336914 
	C143.541092,414.548492 142.277771,412.760101 140.839279,410.484222 
	C140.738968,410.343658 140.638657,410.203125 140.632614,409.361145 
	C138.124023,404.844177 135.615433,400.327209 133.010269,395.068665 
	C132.705902,394.394104 132.401550,393.719513 132.402863,392.413757 
	C131.282593,390.250488 130.162308,388.087250 128.978577,385.153534 
	C121.677361,363.807861 118.480003,341.886414 119.575439,319.330750 
	C120.723137,295.698944 126.743233,273.291443 137.329834,252.257217 
	C151.200897,224.697220 171.597916,202.978058 198.042343,186.971802 
	C223.351944,171.652451 250.670578,163.293671 280.331329,162.695190 
	C305.181183,162.193787 328.987335,166.783707 351.652405,177.000336 
	C367.731201,184.248062 382.940674,192.976654 396.924133,204.807144 
	C398.261993,205.893951 399.599823,206.980774 400.999542,208.000000 
	C400.999542,208.000000 400.932281,208.062592 401.193665,208.679916 
	C410.460022,219.455399 419.726379,230.230881 429.068237,241.714813 
	C430.642822,244.399780 431.428009,247.822556 434.508667,249.099838 
	C434.887970,248.788773 435.267303,248.477722 435.646606,248.166656 
	C433.869965,245.345047 432.093323,242.523422 430.102722,239.015930 
	C424.217468,230.116547 418.814545,220.842102 412.284119,212.444427 
	C407.622498,206.449844 401.446625,201.632812 395.498047,195.809494 
	C394.042236,194.516861 392.586395,193.224243 390.948730,191.278259 
	C386.942688,188.333298 382.936646,185.388351 378.526550,182.140900 
	C378.367950,182.084717 378.209381,182.028534 377.857849,181.333405 
	C375.555023,179.986298 373.252167,178.639206 370.559753,177.046692 
	C370.559753,177.046692 370.111023,176.943542 369.876190,176.315765 
	C368.568909,175.311691 367.360748,174.131943 365.939453,173.329880 
	C344.901886,161.458038 322.001587,155.425644 298.185364,153.512802 
	C271.377930,151.359741 245.111511,155.031189 220.096542,165.270828 
	C212.390976,168.425018 205.270844,173.009338 197.436996,177.048935 
	C197.436996,177.048935 197.048248,177.293106 196.343582,177.268066 
	C184.590271,183.206848 174.193680,191.059418 164.826477,200.224747 
	C160.043076,204.905029 155.793442,210.130829 150.775299,215.380310 
	C150.502045,215.892242 150.228790,216.404190 149.304016,217.083893 
	C147.949478,219.069290 146.594940,221.054688 145.002274,223.390701 
	C145.002274,223.390701 144.895462,223.800842 144.266724,224.046036 
	C139.604889,231.713089 134.943069,239.380127 129.963715,247.613693 
	C129.573441,248.616760 129.183167,249.619812 128.187439,250.959549 
	C126.164413,255.076401 123.576828,259.017761 122.231621,263.345306 
	C119.080132,273.483765 116.523880,283.807312 113.398048,294.762939 
	C113.358109,295.535797 113.318169,296.308624 112.857681,297.333221 
	C112.931770,297.880707 113.005859,298.428162 112.872437,299.656647 
	C112.700134,300.810272 112.527832,301.963928 111.803375,303.609070 
	C111.735504,305.091797 111.667633,306.574524 111.327972,308.781189 
	C111.309563,309.549896 111.291153,310.318634 110.762451,311.645172 
	C110.754654,313.446594 110.746857,315.248047 110.420013,317.922760 
	C110.592148,325.275787 110.764282,332.628845 110.530037,340.518463 
	C110.774017,341.982605 111.018005,343.446777 111.155815,345.728424 
	C111.328270,346.798889 111.500717,347.869385 111.376648,349.616913 
	C111.677208,350.713593 111.977768,351.810272 112.201851,353.734772 
	C112.409966,354.803436 112.618088,355.872101 112.497536,357.537292 
	C112.777443,358.320801 113.057343,359.104340 113.236923,360.673035 
	C113.423203,361.430725 113.609489,362.188446 113.479065,363.666077 
	C116.276344,373.224335 118.949898,382.821655 121.948967,392.316162 
	C122.809326,395.039886 124.610420,397.466461 126.127289,400.717285 
	C126.355438,401.125580 126.583588,401.533844 126.538643,402.537079 
	C127.355095,403.697449 128.171539,404.857819 129.115845,406.708496 
	C129.344177,407.113892 129.572510,407.519257 129.559067,408.564758 
	C132.376221,413.033569 135.193359,417.502350 138.174835,422.482788 
	C138.275284,422.631073 138.375748,422.779388 138.380920,423.595062 
	C140.224289,425.788025 142.067673,427.980988 144.074722,430.594818 
	C144.074722,430.594818 144.361115,430.943909 144.317673,431.627045 
	C146.205078,433.763000 148.092468,435.898956 150.177704,438.517029 
	C150.285263,438.653412 150.392838,438.789825 150.391495,439.578613 
	C153.233749,442.439514 156.075989,445.300415 159.206741,448.705750 
	C159.913849,449.450867 160.620956,450.195984 161.304565,451.597778 
	C162.896973,452.871552 164.489365,454.145355 166.520599,455.895477 
	C167.053268,456.247284 167.585938,456.599091 168.210327,457.618134 
	C171.156540,459.989105 174.102737,462.360046 177.386063,464.985199 
	C177.386063,464.985199 177.788895,465.111694 178.006424,465.738861 
	C179.360565,466.682068 180.714722,467.625275 182.475708,468.861816 
	C182.633774,468.916321 182.791824,468.970795 183.100815,469.684723 
	C189.090027,473.302246 195.079239,476.919800 201.573380,480.813629 
	C201.760330,480.856812 201.947266,480.899963 202.270432,481.598358 
	C203.039322,482.193634 203.737350,482.926697 204.587540,483.363861 
	C221.399597,492.009064 239.326569,497.308472 257.857910,500.543060 
	C262.802338,501.406097 267.973999,500.967041 273.618103,501.217285 
	C274.004913,501.185760 274.391693,501.154236 275.202057,501.765503 
	C281.777435,501.912567 288.360443,502.307831 294.925079,502.105896 
	C298.407684,501.998749 301.858368,500.854980 305.865936,500.266388 
	C306.228790,500.227264 306.591614,500.188141 307.545319,500.544464 
	C309.463623,500.085358 311.381897,499.626251 313.855927,499.244476 
	C314.225800,499.200836 314.595642,499.157227 315.548553,499.521515 
	C315.874847,499.575470 316.221436,499.730133 316.524536,499.669006 
	C340.913696,494.752747 363.769043,486.115601 383.748138,470.990173 
	C389.206207,466.858093 393.858734,461.661987 399.437164,456.723236 
	C399.946320,456.119507 400.455444,455.515747 401.628479,454.831146 
	C403.049591,453.213409 404.470673,451.595673 406.272125,449.630310 
	C406.506317,449.379120 406.740540,449.127930 407.640015,448.783966 
	C409.354034,446.528748 411.068085,444.273499 413.166107,441.570282 
	C413.424774,441.274048 413.683441,440.977814 414.589081,440.561829 
	C421.112793,434.179169 426.150238,426.829895 429.807800,417.934174 
	C432.801514,412.525604 435.938019,407.189362 438.728943,401.678101 
	C440.131470,398.908447 440.905701,395.820648 441.964111,392.876740 
	C441.538879,392.697998 441.113647,392.519257 440.688416,392.340515 
	C436.404633,400.066498 432.120850,407.792511 427.262177,415.901215 
M303.084717,324.688477 
	C303.084717,322.238617 303.084717,319.788727 303.084717,316.262848 
	C298.896179,317.671295 295.604309,318.778229 292.312408,319.885162 
	C292.412811,320.382751 292.513184,320.880310 292.613586,321.377899 
	C293.931610,321.818451 295.249634,322.259003 296.880585,322.804169 
	C296.880585,328.027924 296.890656,333.174927 296.877838,338.321869 
	C296.864288,343.776001 295.205231,345.319763 289.796661,345.135864 
	C285.095398,344.976013 284.014709,341.831818 283.961639,338.018402 
	C283.865387,331.099030 283.934326,324.177399 283.934326,316.151794 
	C279.638153,317.678162 276.395844,318.830139 273.153534,319.982086 
	C273.111816,320.503723 273.070099,321.025360 273.028412,321.547028 
	C277.751099,321.467804 277.858612,324.261871 277.744843,327.472076 
	C277.591553,331.796722 277.575439,336.141174 277.803619,340.461121 
	C278.230927,348.551208 283.716003,351.926605 291.268311,348.887848 
	C293.558197,347.966553 295.251740,346.608490 298.232819,348.689911 
	C300.299927,350.133209 304.188629,348.967499 307.263458,348.967499 
	C307.491913,348.466125 307.720367,347.964752 307.948853,347.463379 
	C301.760254,346.041382 303.156311,341.519989 303.099213,337.629913 
	C303.040558,333.632660 303.084015,329.633911 303.084717,324.688477 
M428.987701,315.904572 
	C425.867249,316.436340 423.332550,318.897766 419.417450,317.078156 
	C417.423279,316.151306 413.949738,318.407471 411.144928,319.224823 
	C411.082214,319.698151 411.019501,320.171478 410.956757,320.644806 
	C415.495117,320.889435 415.546661,323.680664 415.485504,326.855469 
	C415.338287,334.500061 415.447784,342.149353 415.418182,349.796600 
	C415.403564,353.570679 416.608704,357.896759 410.826996,359.111450 
	C414.908936,361.873169 423.866699,361.647034 426.544189,358.738525 
	C419.491272,357.407806 421.575989,352.607239 422.123077,348.108215 
	C424.201691,348.108215 426.010498,348.178070 427.812408,348.096497 
	C437.144348,347.674164 443.075043,341.068909 443.002014,331.227753 
	C442.933258,321.960052 437.970490,316.185059 428.987701,315.904572 
M262.552917,317.354950 
	C260.068726,317.218292 257.561432,316.795013 255.104233,316.993103 
	C242.497360,318.009491 235.607101,328.342957 239.410080,340.333466 
	C241.883118,348.130798 247.762619,351.364624 255.645706,349.285980 
	C257.017944,348.924194 258.413544,348.651001 260.059143,348.277710 
	C260.128204,353.795959 262.656830,359.607330 255.436295,362.585632 
	C260.548462,362.585632 265.660614,362.585632 270.772766,362.585632 
	C271.085632,362.247559 271.398499,361.909485 271.711365,361.571411 
	C265.179504,360.030060 266.619019,355.362122 266.607605,351.294006 
	C266.580109,341.478546 266.542480,331.662567 266.625366,321.847778 
	C266.646088,319.399231 266.376892,317.503357 262.552917,317.354950 
M352.167419,332.230042 
	C353.776978,332.230042 355.386536,332.230042 356.914368,332.230042 
	C358.270844,321.724274 352.430878,316.048187 342.639832,317.687744 
	C335.838287,318.826721 331.731506,322.991669 330.437347,330.063232 
	C329.028229,337.762878 331.730804,344.780853 337.315277,347.923523 
	C342.824860,351.024017 351.969574,350.450928 356.160217,346.525452 
	C356.974396,345.762756 357.061554,344.223938 357.991089,341.626129 
	C351.563599,345.131195 346.319885,347.996948 340.953064,343.636078 
	C337.540131,340.862915 336.266937,337.045898 337.179840,332.226501 
	C342.019623,332.226501 346.635498,332.226501 352.167419,332.230042 
M457.032593,301.825195 
	C452.856537,299.447205 449.922729,302.120789 446.427155,304.204803 
	C451.254211,304.712036 451.203369,307.707184 451.139893,311.069885 
	C450.983032,319.376404 451.060913,327.687836 451.087769,335.997162 
	C451.100220,339.850342 451.869751,343.995789 446.804596,345.578339 
	C446.758636,345.592682 446.890320,346.175629 446.941071,346.506165 
	C451.953369,346.506165 456.928986,346.506165 462.767548,346.506165 
	C457.231873,342.181519 457.233002,342.181519 457.226990,334.999237 
	C457.217987,324.197113 457.207245,313.395020 457.032593,301.825195 
M521.696960,345.220917 
	C522.038269,344.196869 522.379517,343.172821 522.951904,341.455170 
	C521.276855,341.945526 520.647278,342.102081 520.036499,342.312927 
	C513.393005,344.605927 508.669464,343.459747 506.012268,338.899994 
	C502.968201,333.676331 503.626495,324.560089 507.695709,321.184113 
	C509.190216,319.944244 511.548676,319.418976 513.551819,319.315125 
	C514.165405,319.283264 514.765808,321.841095 515.631714,323.022949 
	C516.483215,324.185181 517.948669,326.117371 518.641235,325.922516 
	C520.086487,325.515839 522.441467,323.437439 522.233765,322.913513 
	C521.353699,320.693359 520.120605,317.838776 518.205811,316.936493 
	C509.637970,312.899323 499.279938,318.818909 497.840118,328.338562 
	C496.875000,334.719696 497.763794,340.756989 503.269073,345.034271 
	C508.999908,349.486725 515.059265,348.576721 521.696960,345.220917 
M379.745941,348.402649 
	C380.292480,347.667450 380.839020,346.932251 381.730469,345.733063 
	C374.267731,346.116669 372.455750,345.570618 372.226044,341.835968 
	C371.813049,335.121429 372.109436,328.363312 372.109436,321.209686 
	C374.522614,321.209686 376.516357,321.386780 378.452881,321.130890 
	C379.348297,321.012634 380.132111,320.049622 380.966522,319.469666 
	C380.092712,318.932190 379.260162,318.036743 378.336731,317.930328 
	C376.295990,317.695221 374.209473,317.857239 372.207336,317.857239 
	C371.880493,314.688385 371.638367,312.341064 371.238953,308.468567 
	C367.456726,313.261139 364.627991,316.845459 362.784637,319.181213 
	C363.978760,322.089722 365.377167,324.040405 365.497345,326.066864 
	C365.831146,331.696228 365.488251,337.362244 365.688446,343.003998 
	C365.871857,348.172699 368.653046,350.490204 373.808594,349.978607 
	C375.600983,349.800720 377.345306,349.138397 379.745941,348.402649 
M313.151459,318.730011 
	C312.423279,319.297272 311.695129,319.864532 310.966980,320.431824 
	C312.179413,321.299713 313.391846,322.167633 315.228485,323.482361 
	C312.843262,331.276917 319.408875,340.929321 310.420837,348.498901 
	C315.859131,348.498901 320.834229,348.498901 325.809296,348.498901 
	C319.663513,345.906036 321.310516,340.851318 321.268707,336.532776 
	C321.206421,330.099365 321.252533,323.664886 321.252533,316.504364 
	C318.178802,317.342834 315.992950,317.939087 313.151459,318.730011 
M321.805298,304.879395 
	C318.932281,302.091431 316.397095,302.591187 314.955780,306.128357 
	C314.500671,307.245239 315.303101,309.443146 316.270050,310.392792 
	C317.057251,311.165863 319.779846,311.413177 320.189728,310.844757 
	C321.263916,309.355164 321.542725,307.291992 321.805298,304.879395 
z"/>
<path fill="#BA9D7B" opacity="1.000000" stroke="none" 
	d="
M168.118591,456.950897 
	C167.585938,456.599091 167.053268,456.247284 166.222656,455.376251 
	C164.392502,453.551727 162.860275,452.246399 161.328064,450.941101 
	C160.620956,450.195984 159.913849,449.450867 159.064713,448.074707 
	C156.115250,444.604523 153.307816,441.765381 150.500397,438.926208 
	C150.392838,438.789825 150.285263,438.653412 150.060791,437.926086 
	C148.082962,435.204742 146.222031,433.074310 144.361115,430.943909 
	C144.361115,430.943909 144.074722,430.594818 143.997589,430.022064 
	C142.105713,427.275452 140.290955,425.101593 138.476196,422.927704 
	C138.375748,422.779388 138.275284,422.631073 138.061401,421.874512 
	C135.232254,416.819031 132.516556,412.371826 129.800842,407.924622 
	C129.572510,407.519257 129.344177,407.113892 129.043579,406.042725 
	C128.251434,404.231995 127.531586,403.087067 126.811737,401.942139 
	C126.583588,401.533844 126.355438,401.125580 126.064301,399.985046 
	C123.791046,393.062317 121.492943,386.901428 119.395950,380.672821 
	C117.419090,374.801025 115.654015,368.857880 113.795776,362.946136 
	C113.609489,362.188446 113.423203,361.430725 113.471283,360.090485 
	C113.412498,358.652222 113.119354,357.796478 112.826210,356.940765 
	C112.618088,355.872101 112.409966,354.803436 112.446976,353.097626 
	C112.352463,351.286926 112.012810,350.113403 111.673164,348.939850 
	C111.500717,347.869385 111.328270,346.798889 111.432907,345.065308 
	C111.452133,342.928741 111.194275,341.455322 110.936417,339.981873 
	C110.764282,332.628845 110.592148,325.275787 110.846863,317.329803 
	C111.273399,314.853668 111.273071,312.970520 111.272743,311.087341 
	C111.291153,310.318634 111.309563,309.549896 111.740295,308.291626 
	C112.220253,306.240540 112.287888,304.679047 112.355530,303.117554 
	C112.527832,301.963928 112.700134,300.810272 113.185448,299.190125 
	C113.425056,298.176208 113.351654,297.628845 113.278244,297.081482 
	C113.318169,296.308624 113.358109,295.535797 113.836395,294.257507 
	C117.868011,282.591187 121.418900,271.416382 125.080795,260.278107 
	C126.156387,257.006500 127.546776,253.838409 128.792892,250.622879 
	C129.183167,249.619812 129.573441,248.616760 130.450378,247.264633 
	C132.111740,245.235275 133.401993,243.623108 134.440186,241.862320 
	C137.973236,235.870102 141.417374,229.825470 144.895462,223.800842 
	C144.895462,223.800842 145.002274,223.390701 145.435913,223.147034 
	C147.231552,220.907608 148.593536,218.911865 149.955536,216.916122 
	C150.228790,216.404190 150.502045,215.892242 151.379517,215.208939 
	C153.084412,214.383636 154.337860,213.896469 155.261948,213.049789 
	C163.744171,205.278076 172.008133,197.259369 180.671860,189.697800 
	C185.818848,185.205627 191.569183,181.404770 197.048248,177.293106 
	C197.048248,177.293106 197.436996,177.048935 198.045197,177.016632 
	C201.484390,175.680649 204.385544,174.509155 207.134232,173.050369 
	C218.882309,166.815460 231.266541,162.289139 244.309662,159.837982 
	C254.675705,157.889908 265.116608,155.835068 275.608185,155.188248 
	C288.628387,154.385529 301.590393,155.424500 314.628967,157.663467 
	C329.501556,160.217377 343.508606,164.553467 357.024872,170.965454 
	C361.357239,173.020676 365.747314,174.954300 370.111023,176.943542 
	C370.111023,176.943542 370.559753,177.046692 370.814606,177.495514 
	C373.396576,179.287018 375.723663,180.629684 378.050781,181.972351 
	C378.209381,182.028534 378.367950,182.084717 378.798920,182.595551 
	C383.091064,186.010666 387.110809,188.971146 391.130585,191.931610 
	C392.586395,193.224243 394.042236,194.516861 395.779022,196.369705 
	C397.741608,199.271698 399.423248,201.613480 401.665222,204.735611 
	C399.094452,204.470978 397.855591,204.343445 396.616730,204.215927 
	C382.940674,192.976654 367.731201,184.248062 351.652405,177.000336 
	C328.987335,166.783707 305.181183,162.193787 280.331329,162.695190 
	C250.670578,163.293671 223.351944,171.652451 198.042343,186.971802 
	C171.597916,202.978058 151.200897,224.697220 137.329834,252.257217 
	C126.743233,273.291443 120.723137,295.698944 119.575439,319.330750 
	C118.480003,341.886414 121.677361,363.807861 128.987961,385.911377 
	C130.030624,388.794434 131.063904,390.919708 132.097183,393.044952 
	C132.401550,393.719513 132.705902,394.394104 133.021484,395.830383 
	C135.534592,401.082275 138.036469,405.572449 140.538345,410.062622 
	C140.638657,410.203125 140.738968,410.343658 140.944824,411.083740 
	C142.308609,413.466156 143.566864,415.249054 144.825104,417.031921 
	C144.825104,417.031921 145.056595,417.341553 145.073242,417.878906 
	C146.163559,419.638947 147.237213,420.861664 148.310867,422.084412 
	C148.440140,422.241791 148.569397,422.399139 148.853882,423.100739 
	C149.457275,424.121796 149.905457,424.598633 150.353607,425.075470 
	C151.427063,426.550232 152.500504,428.024963 153.813263,430.108826 
	C156.009232,432.822418 157.965897,434.926849 159.922562,437.031250 
	C160.520844,437.551788 161.119110,438.072327 161.873154,439.156250 
	C162.570786,440.165039 163.112640,440.610474 163.654495,441.055878 
	C165.010559,442.496399 166.366608,443.936920 167.894745,446.019806 
	C169.101089,447.412506 170.135345,448.162842 171.169617,448.913208 
	C171.169617,448.913208 171.589615,449.058777 171.823059,449.507446 
	C173.703339,451.304352 175.350159,452.652557 176.996979,454.000732 
	C177.502594,454.350922 178.008194,454.701111 178.793152,455.533630 
	C179.649841,456.368469 180.227219,456.720917 180.804596,457.073395 
	C181.357208,457.419281 181.909821,457.765198 182.770889,458.630219 
	C184.053177,459.764862 185.027023,460.380402 186.000854,460.995941 
	C186.168701,461.076843 186.336548,461.157776 186.795578,461.700745 
	C188.059753,462.773987 189.032745,463.385162 190.005737,463.996368 
	C190.173203,464.077576 190.340652,464.158813 190.829224,464.694275 
	C193.416428,466.438995 195.682526,467.729462 197.948608,469.019928 
	C198.124313,469.079132 198.300003,469.138367 198.807495,469.640656 
	C209.548538,477.816193 221.564804,482.085358 233.735626,485.945190 
	C237.796967,487.233246 242.049881,487.917236 246.215240,488.877319 
	C246.631317,488.910736 247.047379,488.944153 248.022919,489.329651 
	C262.573303,493.281036 276.807098,494.839050 291.205444,493.905579 
	C298.500305,493.432648 305.733398,492.006989 312.994415,491.012085 
	C313.367096,490.939178 313.739777,490.866272 314.812866,490.870331 
	C317.677032,490.291046 319.840851,489.634766 322.004639,488.978455 
	C322.362396,488.907257 322.720154,488.836029 323.785950,488.847107 
	C330.046112,487.426697 335.627197,486.019775 341.130798,484.356384 
	C342.570068,483.921356 343.768433,482.689117 345.077423,481.822998 
	C345.515533,481.602966 345.953644,481.382904 347.139160,481.105103 
	C352.943146,478.502075 357.999664,475.956787 363.056213,473.411499 
	C363.214722,473.323059 363.373230,473.234619 364.147278,473.053528 
	C366.533020,471.817047 368.303253,470.673157 370.073486,469.529266 
	C370.820496,469.083099 371.567535,468.636902 372.921753,468.072418 
	C374.039856,467.445679 374.550781,466.937225 375.061737,466.428802 
	C375.203766,466.332245 375.345795,466.235687 376.090454,466.045837 
	C379.490173,463.891876 382.287262,461.831177 385.084351,459.770508 
	C385.438934,459.531708 385.793549,459.292938 386.824463,458.982239 
	C392.008759,454.960114 396.516693,451.009857 401.024658,447.059631 
	C401.230438,446.789032 401.436218,446.518433 402.215393,446.102478 
	C407.097961,442.185638 411.407166,438.414185 415.716339,434.642731 
	C416.063019,435.025940 416.409668,435.409119 416.756348,435.792328 
	C415.818268,437.422089 414.880188,439.051819 413.942078,440.681580 
	C413.683441,440.977814 413.424774,441.274048 412.696838,441.942566 
	C410.476624,444.502136 408.725708,446.689453 406.974792,448.876770 
	C406.740540,449.127930 406.506317,449.379120 405.749573,449.842529 
	C403.806183,451.673828 402.385376,453.292908 400.964569,454.912018 
	C400.455444,455.515747 399.946320,456.119507 398.821655,456.882263 
	C393.695557,460.639130 389.157471,464.203094 384.679596,467.841217 
	C370.890533,479.044281 355.438171,487.052399 338.415436,492.083252 
	C330.589752,494.396057 322.781616,496.768280 314.965515,499.113556 
	C314.595642,499.157227 314.225800,499.200836 313.142761,499.141510 
	C310.604553,499.408722 308.779510,499.778870 306.954468,500.149048 
	C306.591614,500.188141 306.228790,500.227264 305.113373,500.153229 
	C294.500031,500.400940 284.639282,500.761810 274.778503,501.122681 
	C274.391693,501.154236 274.004913,501.185760 273.056335,500.854187 
	C272.024139,500.344116 271.557220,500.081268 271.082764,500.066925 
	C254.138519,499.555084 238.029572,495.265259 222.334518,489.199310 
	C215.550751,486.577454 208.864655,483.702881 202.134186,480.943115 
	C201.947266,480.899963 201.760330,480.856812 201.242523,480.369598 
	C194.924393,476.292114 188.937134,472.658661 182.949875,469.025238 
	C182.791824,468.970795 182.633774,468.916321 182.201324,468.408783 
	C180.547577,467.007721 179.168228,466.059723 177.788895,465.111694 
	C177.788895,465.111694 177.386063,464.985199 177.161057,464.537964 
	C173.996902,461.710785 171.057755,459.330841 168.118591,456.950897 
z"/>
<path fill="#1F1F1F" opacity="1.000000" stroke="none" 
	d="
M303.083740,325.162170 
	C303.084015,329.633911 303.040558,333.632660 303.099213,337.629913 
	C303.156311,341.519989 301.760254,346.041382 307.948853,347.463379 
	C307.720367,347.964752 307.491913,348.466125 307.263458,348.967499 
	C304.188629,348.967499 300.299927,350.133209 298.232819,348.689911 
	C295.251740,346.608490 293.558197,347.966553 291.268311,348.887848 
	C283.716003,351.926605 278.230927,348.551208 277.803619,340.461121 
	C277.575439,336.141174 277.591553,331.796722 277.744843,327.472076 
	C277.858612,324.261871 277.751099,321.467804 273.028412,321.547028 
	C273.070099,321.025360 273.111816,320.503723 273.153534,319.982086 
	C276.395844,318.830139 279.638153,317.678162 283.934326,316.151794 
	C283.934326,324.177399 283.865387,331.099030 283.961639,338.018402 
	C284.014709,341.831818 285.095398,344.976013 289.796661,345.135864 
	C295.205231,345.319763 296.864288,343.776001 296.877838,338.321869 
	C296.890656,333.174927 296.880585,328.027924 296.880585,322.804169 
	C295.249634,322.259003 293.931610,321.818451 292.613586,321.377899 
	C292.513184,320.880310 292.412811,320.382751 292.312408,319.885162 
	C295.604309,318.778229 298.896179,317.671295 303.084717,316.262848 
	C303.084717,319.788727 303.084717,322.238617 303.083740,325.162170 
z"/>
<path fill="#564939" opacity="1.000000" stroke="none" 
	d="
M429.368866,315.855743 
	C437.970490,316.185059 442.933258,321.960052 443.002014,331.227753 
	C443.075043,341.068909 437.144348,347.674164 427.812408,348.096497 
	C426.010498,348.178070 424.201691,348.108215 422.123077,348.108215 
	C421.575989,352.607239 419.491272,357.407806 426.544189,358.738525 
	C423.866699,361.647034 414.908936,361.873169 410.826996,359.111450 
	C416.608704,357.896759 415.403564,353.570679 415.418182,349.796600 
	C415.447784,342.149353 415.338287,334.500061 415.485504,326.855469 
	C415.546661,323.680664 415.495117,320.889435 410.956757,320.644806 
	C411.019501,320.171478 411.082214,319.698151 411.144928,319.224823 
	C413.949738,318.407471 417.423279,316.151306 419.417450,317.078156 
	C423.332550,318.897766 425.867249,316.436340 429.368866,315.855743 
M430.435852,320.985748 
	C423.143524,319.771820 421.499054,321.131348 421.501862,328.382263 
	C421.503387,332.371368 421.672668,336.368530 421.471313,340.347107 
	C421.299072,343.750732 423.248657,345.216431 425.969635,344.686676 
	C428.709839,344.153107 431.941895,343.082031 433.693634,341.118256 
	C438.653503,335.558136 437.133789,325.934509 430.435852,320.985748 
M420.021667,331.547363 
	C420.021667,327.154236 420.021667,322.761078 420.021667,318.367950 
	C419.525970,318.397980 419.030273,318.428009 418.534576,318.458038 
	C415.942017,322.486847 416.295197,349.519958 420.021149,352.595062 
	C420.021149,345.341583 420.021149,338.930237 420.021667,331.547363 
M417.748474,358.672333 
	C418.697845,358.277313 419.647247,357.882294 420.596619,357.487274 
	C419.903900,356.699768 419.211151,355.912262 418.518433,355.124756 
	C418.091217,356.125702 417.664001,357.126648 417.748474,358.672333 
z"/>
<path fill="#282828" opacity="1.000000" stroke="none" 
	d="
M262.949402,317.441101 
	C266.376892,317.503357 266.646088,319.399231 266.625366,321.847778 
	C266.542480,331.662567 266.580109,341.478546 266.607605,351.294006 
	C266.619019,355.362122 265.179504,360.030060 271.711365,361.571411 
	C271.398499,361.909485 271.085632,362.247559 270.772766,362.585632 
	C265.660614,362.585632 260.548462,362.585632 255.436295,362.585632 
	C262.656830,359.607330 260.128204,353.795959 260.059143,348.277710 
	C258.413544,348.651001 257.017944,348.924194 255.645706,349.285980 
	C247.762619,351.364624 241.883118,348.130798 239.410080,340.333466 
	C235.607101,328.342957 242.497360,318.009491 255.104233,316.993103 
	C257.561432,316.795013 260.068726,317.218292 262.949402,317.441101 
M246.489517,326.380890 
	C246.414246,330.761444 245.636597,335.277649 246.449234,339.486755 
	C247.374619,344.279968 251.512100,346.347595 256.279236,345.885284 
	C258.972351,345.624115 260.494293,344.664551 260.370270,341.563171 
	C260.171814,336.601074 260.329193,331.624847 260.331787,326.654572 
	C260.335144,320.231750 257.186127,318.231720 251.358627,321.290863 
	C249.574600,322.227417 248.329468,324.190521 246.489517,326.380890 
M262.786713,361.951447 
	C263.921021,361.898560 265.055328,361.845673 265.877472,361.807343 
	C265.587158,359.298828 265.120850,357.061737 265.104248,354.821320 
	C265.025299,344.158173 265.058960,333.494049 265.075317,322.830292 
	C265.079407,320.163605 264.708557,318.099243 261.917877,319.424744 
	C261.917877,323.767578 262.022339,327.565918 261.897614,331.356689 
	C261.567963,341.375732 261.132751,351.391235 260.804749,361.410309 
	C260.799408,361.573425 261.621429,361.763611 262.786713,361.951447 
z"/>
<path fill="#1F1F1F" opacity="1.000000" stroke="none" 
	d="
M351.709412,332.228271 
	C346.635498,332.226501 342.019623,332.226501 337.179840,332.226501 
	C336.266937,337.045898 337.540131,340.862915 340.953064,343.636078 
	C346.319885,347.996948 351.563599,345.131195 357.991089,341.626129 
	C357.061554,344.223938 356.974396,345.762756 356.160217,346.525452 
	C351.969574,350.450928 342.824860,351.024017 337.315277,347.923523 
	C331.730804,344.780853 329.028229,337.762878 330.437347,330.063232 
	C331.731506,322.991669 335.838287,318.826721 342.639832,317.687744 
	C352.430878,316.048187 358.270844,321.724274 356.914368,332.230042 
	C355.386536,332.230042 353.776978,332.230042 351.709412,332.228271 
M350.319855,324.470825 
	C347.861206,323.008820 345.093262,320.014923 343.014496,320.434601 
	C339.680969,321.107666 336.978363,324.156860 337.269318,329.049988 
	C341.108551,329.049988 344.857635,329.270416 348.540955,328.876465 
	C349.342255,328.790802 349.908295,326.504974 350.319855,324.470825 
z"/>
<path fill="#504433" opacity="1.000000" stroke="none" 
	d="
M457.114929,302.209045 
	C457.207245,313.395020 457.217987,324.197113 457.226990,334.999237 
	C457.233002,342.181519 457.231873,342.181519 462.767548,346.506165 
	C456.928986,346.506165 451.953369,346.506165 446.941071,346.506165 
	C446.890320,346.175629 446.758636,345.592682 446.804596,345.578339 
	C451.869751,343.995789 451.100220,339.850342 451.087769,335.997162 
	C451.060913,327.687836 450.983032,319.376404 451.139893,311.069885 
	C451.203369,307.707184 451.254211,304.712036 446.427155,304.204803 
	C449.922729,302.120789 452.856537,299.447205 457.114929,302.209045 
z"/>
<path fill="#504433" opacity="1.000000" stroke="none" 
	d="
M521.401611,345.407166 
	C515.059265,348.576721 508.999908,349.486725 503.269073,345.034271 
	C497.763794,340.756989 496.875000,334.719696 497.840118,328.338562 
	C499.279938,318.818909 509.637970,312.899323 518.205811,316.936493 
	C520.120605,317.838776 521.353699,320.693359 522.233765,322.913513 
	C522.441467,323.437439 520.086487,325.515839 518.641235,325.922516 
	C517.948669,326.117371 516.483215,324.185181 515.631714,323.022949 
	C514.765808,321.841095 514.165405,319.283264 513.551819,319.315125 
	C511.548676,319.418976 509.190216,319.944244 507.695709,321.184113 
	C503.626495,324.560089 502.968201,333.676331 506.012268,338.899994 
	C508.669464,343.459747 513.393005,344.605927 520.036499,342.312927 
	C520.647278,342.102081 521.276855,341.945526 522.951904,341.455170 
	C522.379517,343.172821 522.038269,344.196869 521.401611,345.407166 
z"/>
<path fill="#564939" opacity="1.000000" stroke="none" 
	d="
M468.968384,332.986084 
	C470.053833,332.302887 471.139313,331.619751 472.908142,330.915283 
	C475.063507,330.285004 476.535461,329.675995 478.007416,329.067017 
	C478.425934,328.996643 478.844421,328.926270 479.862000,328.879639 
	C480.975464,328.613617 481.489838,328.323883 482.004211,328.034149 
	C485.882202,326.636353 483.723877,323.985046 483.006104,321.076172 
	C481.750458,320.074982 480.808777,319.695709 479.867065,319.316437 
	C479.178772,319.270203 478.490509,319.223938 477.143799,319.098755 
	C475.639008,319.294556 474.792664,319.569336 473.898102,319.527954 
	C470.198059,318.586029 469.472961,319.117554 468.181335,323.977936 
	C470.111908,323.977936 471.849274,323.977936 473.586639,323.977936 
	C471.473541,324.084564 469.360474,324.191193 467.247375,324.297821 
	C467.962158,322.424103 468.131531,319.793823 469.490723,318.813873 
	C474.186279,315.428497 479.629120,314.816864 485.153137,316.657532 
	C488.842468,317.886810 489.971741,321.013031 490.067230,324.561188 
	C490.165649,328.218933 489.967896,331.887390 490.140808,335.539703 
	C490.321442,339.354950 488.121368,344.232147 495.620270,345.154510 
	C495.168427,345.738129 494.716583,346.321716 494.264740,346.905304 
	C491.209534,346.905304 487.643311,347.884552 485.242096,346.631439 
	C482.813660,345.364105 481.583496,345.504425 479.402222,346.576691 
	C475.695557,348.398682 471.702576,349.123383 468.239777,345.903198 
	C465.027100,342.915710 464.889954,339.235931 466.724121,335.617920 
	C467.077454,337.709381 466.420715,339.909058 467.214539,341.249969 
	C468.455719,343.346436 470.549652,345.047089 472.592896,346.469055 
	C473.009583,346.759033 474.799225,345.076141 476.323273,344.163666 
	C484.693420,342.215973 485.446472,340.838226 483.520447,330.354797 
	C480.116669,331.666504 476.844086,332.927643 473.191528,334.060913 
	C471.530518,333.617371 470.249481,333.301727 468.968384,332.986084 
z"/>
<path fill="#1F1F1F" opacity="1.000000" stroke="none" 
	d="
M379.428772,348.549988 
	C377.345306,349.138397 375.600983,349.800720 373.808594,349.978607 
	C368.653046,350.490204 365.871857,348.172699 365.688446,343.003998 
	C365.488251,337.362244 365.831146,331.696228 365.497345,326.066864 
	C365.377167,324.040405 363.978760,322.089722 362.784637,319.181213 
	C364.627991,316.845459 367.456726,313.261139 371.238953,308.468567 
	C371.638367,312.341064 371.880493,314.688385 372.207336,317.857239 
	C374.209473,317.857239 376.295990,317.695221 378.336731,317.930328 
	C379.260162,318.036743 380.092712,318.932190 380.966522,319.469635 
	C380.132111,320.049622 379.348297,321.012634 378.452881,321.130890 
	C376.516357,321.386780 374.522614,321.209686 372.109436,321.209686 
	C372.109436,328.363312 371.813049,335.121429 372.226044,341.835968 
	C372.455750,345.570618 374.267731,346.116669 381.730469,345.733063 
	C380.839020,346.932251 380.292480,347.667450 379.428772,348.549988 
z"/>
<path fill="#C2AC93" opacity="1.000000" stroke="none" 
	d="
M369.993591,176.629669 
	C365.747314,174.954300 361.357239,173.020676 357.024872,170.965454 
	C343.508606,164.553467 329.501556,160.217377 314.628967,157.663467 
	C301.590393,155.424500 288.628387,154.385529 275.608185,155.188248 
	C265.116608,155.835068 254.675705,157.889908 244.309662,159.837982 
	C231.266541,162.289139 218.882309,166.815460 207.134232,173.050369 
	C204.385544,174.509155 201.484390,175.680649 198.268005,176.961578 
	C205.270844,173.009338 212.390976,168.425018 220.096542,165.270828 
	C245.111511,155.031189 271.377930,151.359741 298.185364,153.512802 
	C322.001587,155.425644 344.901886,161.458038 365.939453,173.329880 
	C367.360748,174.131943 368.568909,175.311691 369.993591,176.629669 
z"/>
<path fill="#1F1F1F" opacity="1.000000" stroke="none" 
	d="
M313.479248,318.632690 
	C315.992950,317.939087 318.178802,317.342834 321.252533,316.504364 
	C321.252533,323.664886 321.206421,330.099365 321.268707,336.532776 
	C321.310516,340.851318 319.663513,345.906036 325.809296,348.498901 
	C320.834229,348.498901 315.859131,348.498901 310.420837,348.498901 
	C319.408875,340.929321 312.843262,331.276917 315.228485,323.482361 
	C313.391846,322.167633 312.179413,321.299713 310.966980,320.431824 
	C311.695129,319.864532 312.423279,319.297272 313.479248,318.632690 
z"/>
<path fill="#493C2C" opacity="1.000000" stroke="none" 
	d="
M549.485474,345.017670 
	C546.346497,345.931061 543.207458,346.844452 539.536621,347.342407 
	C538.555115,346.999390 538.105469,347.071869 537.655823,347.144287 
	C536.960815,347.121979 536.265747,347.099670 535.245972,346.559021 
	C534.271667,345.697449 533.622131,345.354156 532.972595,345.010864 
	C531.226013,342.760254 529.479370,340.509644 527.823975,337.534485 
	C527.637146,335.881653 527.359131,334.953369 527.081055,334.025055 
	C527.002075,333.258881 526.923096,332.492737 527.223755,331.099792 
	C528.036377,328.238373 528.469421,326.003754 528.902466,323.769135 
	C529.058960,323.341949 529.215515,322.914764 529.920410,322.161835 
	C537.603088,315.686523 542.323242,315.262329 550.345398,320.049805 
	C550.952881,320.974487 551.560364,321.899200 552.116089,323.579498 
	C552.064270,325.943665 552.064270,327.552216 552.064270,329.942963 
	C546.656311,329.942963 541.268738,329.896545 535.882568,329.962952 
	C533.267822,329.995178 531.090759,330.558960 532.915405,333.973602 
	C533.043823,334.308624 533.172302,334.643646 533.184204,335.535400 
	C533.382690,336.736145 533.697754,337.380188 534.012756,338.024231 
	C534.294739,338.424866 534.576660,338.825531 534.953552,339.908752 
	C535.660400,341.074066 536.272217,341.556793 536.884094,342.039551 
	C537.093750,342.128784 537.303345,342.218018 537.883789,342.854248 
	C541.138550,345.425262 544.028381,346.343536 546.938110,343.446503 
	C547.999084,342.959930 549.060120,342.473358 550.709778,342.101227 
	C551.179077,343.010773 551.059692,343.805908 550.940308,344.601013 
	C550.940308,344.601013 550.876770,344.854828 550.601562,344.858124 
	C550.032654,344.851807 549.752380,344.903900 549.485474,345.017670 
M541.411560,327.943634 
	C543.156921,327.943634 544.902344,327.943634 546.615906,327.943634 
	C546.799622,321.729828 544.981689,319.129517 540.988220,319.064026 
	C536.809937,318.995514 534.093262,322.067963 533.708862,327.943024 
	C535.999390,327.943024 538.255676,327.943024 541.411560,327.943634 
z"/>
<path fill="#C2AC93" opacity="1.000000" stroke="none" 
	d="
M396.770447,204.511536 
	C397.855591,204.343445 399.094452,204.470978 401.665222,204.735611 
	C399.423248,201.613480 397.741608,199.271698 396.003235,196.610107 
	C401.446625,201.632812 407.622498,206.449844 412.284119,212.444427 
	C418.814545,220.842102 424.217468,230.116547 430.033203,239.623886 
	C429.640045,240.490021 429.316376,240.748184 428.992706,241.006363 
	C419.726379,230.230881 410.460022,219.455399 401.358093,208.315048 
	C401.846680,207.547211 402.170868,207.144226 402.495056,206.741257 
	C402.228241,206.651154 401.758636,206.437134 401.726166,206.490265 
	C401.420715,206.990005 401.189972,207.535400 400.937653,208.067596 
	C399.599823,206.980774 398.261993,205.893951 396.770447,204.511536 
z"/>
<path fill="#1F1F1F" opacity="1.000000" stroke="none" 
	d="
M197.075424,317.749481 
	C200.653244,319.452759 201.927124,322.504700 201.971466,326.230316 
	C202.014664,329.860931 201.946335,333.493134 202.007462,337.123291 
	C202.076797,341.240753 200.509796,346.014221 207.185165,347.633301 
	C206.822830,348.152954 206.460495,348.672638 206.098160,349.192291 
	C203.064987,348.918274 200.031815,348.644257 196.935669,347.529419 
	C196.455246,345.570770 196.037796,344.453003 195.724274,342.932159 
	C195.845032,339.107697 195.861847,335.686279 195.830383,331.937683 
	C194.725113,329.130219 199.898285,326.220337 195.256424,323.987274 
	C194.962158,323.285614 194.667892,322.583923 194.067596,321.254517 
	C191.828232,319.718170 189.894913,318.809540 188.031830,317.714630 
	C188.102081,317.528351 188.031158,317.136536 188.031158,317.136536 
	C190.062363,317.107513 192.093567,317.078491 194.731598,317.318176 
	C195.917435,317.641083 196.496429,317.695282 197.075424,317.749481 
z"/>
<path fill="#282828" opacity="1.000000" stroke="none" 
	d="
M195.158752,324.404510 
	C199.898285,326.220337 194.725113,329.130219 195.461609,331.932678 
	C191.970764,333.521484 188.357895,334.232178 185.799957,336.268219 
	C184.321289,337.445160 183.711639,340.950592 184.198486,343.065613 
	C184.899445,346.110718 187.833527,346.511780 190.656082,345.489502 
	C192.348877,344.876434 193.968079,344.060150 195.620361,343.335205 
	C196.037796,344.453003 196.455246,345.570770 196.835327,347.139893 
	C196.797943,347.591217 196.401855,347.446564 195.994247,347.142822 
	C195.394211,346.895172 195.201797,346.951324 195.009369,347.007446 
	C192.877487,347.689545 190.752502,348.394196 188.612381,349.049408 
	C182.904999,350.796814 178.501434,348.781433 177.146301,343.824493 
	C175.759567,338.752014 179.084610,333.306152 184.353958,332.057922 
	C186.565765,331.533997 188.768723,330.842316 191.014526,330.621216 
	C194.796997,330.248810 195.660614,328.112366 195.158752,324.404510 
z"/>
<path fill="#C2AC93" opacity="1.000000" stroke="none" 
	d="
M315.257019,499.317505 
	C322.781616,496.768280 330.589752,494.396057 338.415436,492.083252 
	C355.438171,487.052399 370.890533,479.044281 384.679596,467.841217 
	C389.157471,464.203094 393.695557,460.639130 398.543518,456.997742 
	C393.858734,461.661987 389.206207,466.858093 383.748138,470.990173 
	C363.769043,486.115601 340.913696,494.752747 316.524536,499.669006 
	C316.221436,499.730133 315.874847,499.575470 315.257019,499.317505 
z"/>
<path fill="#C2AC93" opacity="1.000000" stroke="none" 
	d="
M414.265594,440.621704 
	C414.880188,439.051819 415.818268,437.422089 416.756348,435.792328 
	C416.409668,435.409119 416.063019,435.025940 415.716339,434.642731 
	C411.407166,438.414185 407.097961,442.185638 402.454468,446.002075 
	C402.473389,445.323975 402.693359,444.486908 403.199768,443.894958 
	C411.198853,434.545135 419.234741,425.226776 427.694702,416.053040 
	C428.470703,416.856750 428.814209,417.508606 429.157715,418.160461 
	C426.150238,426.829895 421.112793,434.179169 414.265594,440.621704 
M418.498535,431.126068 
	C418.155029,431.521912 417.811523,431.917786 417.468079,432.313660 
	C418.008728,432.452484 418.549377,432.591309 419.090027,432.730133 
	C419.092773,432.235901 419.095520,431.741669 418.498535,431.126068 
z"/>
<path fill="#C2AC93" opacity="1.000000" stroke="none" 
	d="
M202.202301,481.270752 
	C208.864655,483.702881 215.550751,486.577454 222.334518,489.199310 
	C238.029572,495.265259 254.138519,499.555084 271.082764,500.066925 
	C271.557220,500.081268 272.024139,500.344116 272.767944,500.808411 
	C267.973999,500.967041 262.802338,501.406097 257.857910,500.543060 
	C239.326569,497.308472 221.399597,492.009064 204.587540,483.363861 
	C203.737350,482.926697 203.039322,482.193634 202.202301,481.270752 
z"/>
<path fill="#C2AC93" opacity="1.000000" stroke="none" 
	d="
M196.695923,177.280579 
	C191.569183,181.404770 185.818848,185.205627 180.671860,189.697800 
	C172.008133,197.259369 163.744171,205.278076 155.261948,213.049789 
	C154.337860,213.896469 153.084412,214.383636 151.643127,215.073807 
	C155.793442,210.130829 160.043076,204.905029 164.826477,200.224747 
	C174.193680,191.059418 184.590271,183.206848 196.695923,177.280579 
z"/>
<path fill="#C2AC93" opacity="1.000000" stroke="none" 
	d="
M312.701355,490.767456 
	C305.733398,492.006989 298.500305,493.432648 291.205444,493.905579 
	C276.807098,494.839050 262.573303,493.281036 248.322311,489.424652 
	C254.509628,489.919922 260.949707,491.223389 267.405945,491.309326 
	C280.602539,491.485046 293.807983,491.013214 307.009430,490.788391 
	C308.810059,490.757721 310.608734,490.614105 312.701355,490.767456 
z"/>
<path fill="#CBC3B8" opacity="1.000000" stroke="none" 
	d="
M429.482758,418.047302 
	C428.814209,417.508606 428.470703,416.856750 427.982117,415.861694 
	C432.120850,407.792511 436.404633,400.066498 440.688416,392.340515 
	C441.113647,392.519257 441.538879,392.697998 441.964111,392.876740 
	C440.905701,395.820648 440.131470,398.908447 438.728943,401.678101 
	C435.938019,407.189362 432.801514,412.525604 429.482758,418.047302 
z"/>
<path fill="#C2AC93" opacity="1.000000" stroke="none" 
	d="
M246.035950,488.570892 
	C242.049881,487.917236 237.796967,487.233246 233.735626,485.945190 
	C221.564804,482.085358 209.548538,477.816193 199.038300,469.795776 
	C205.039169,472.421936 210.995392,475.708740 217.277008,478.162537 
	C226.683563,481.837067 236.318741,484.926270 246.035950,488.570892 
z"/>
<path fill="#C2AC93" opacity="1.000000" stroke="none" 
	d="
M128.490173,250.791214 
	C127.546776,253.838409 126.156387,257.006500 125.080795,260.278107 
	C121.418900,271.416382 117.868011,282.591187 114.000702,293.903992 
	C116.523880,283.807312 119.080132,273.483765 122.231621,263.345306 
	C123.576828,259.017761 126.164413,255.076401 128.490173,250.791214 
z"/>
<path fill="#282828" opacity="1.000000" stroke="none" 
	d="
M321.971924,305.168396 
	C321.542725,307.291992 321.263916,309.355164 320.189728,310.844757 
	C319.779846,311.413177 317.057251,311.165863 316.270050,310.392792 
	C315.303101,309.443146 314.500671,307.245239 314.955780,306.128357 
	C316.397095,302.591187 318.932281,302.091431 321.971924,305.168396 
z"/>
<path fill="#3B2A14" opacity="1.000000" stroke="none" 
	d="
M468.684143,333.077209 
	C470.249481,333.301727 471.530518,333.617371 472.984619,334.405640 
	C470.685242,339.030762 471.203613,342.295319 475.955933,344.302734 
	C474.799225,345.076141 473.009583,346.759033 472.592896,346.469055 
	C470.549652,345.047089 468.455719,343.346436 467.214539,341.249969 
	C466.420715,339.909058 467.077454,337.709381 467.048523,335.462799 
	C467.475403,334.410065 467.937653,333.789185 468.684143,333.077209 
z"/>
<path fill="#C2AC93" opacity="1.000000" stroke="none" 
	d="
M113.637421,363.306091 
	C115.654015,368.857880 117.419090,374.801025 119.395950,380.672821 
	C121.492943,386.901428 123.791046,393.062317 125.990753,399.641052 
	C124.610420,397.466461 122.809326,395.039886 121.948967,392.316162 
	C118.949898,382.821655 116.276344,373.224335 113.637421,363.306091 
z"/>
<path fill="#C2AC93" opacity="1.000000" stroke="none" 
	d="
M274.990295,501.444092 
	C284.639282,500.761810 294.500031,500.400940 304.842163,500.109619 
	C301.858368,500.854980 298.407684,501.998749 294.925079,502.105896 
	C288.360443,502.307831 281.777435,501.912567 274.990295,501.444092 
z"/>
<path fill="#564939" opacity="1.000000" stroke="none" 
	d="
M533.043030,333.522125 
	C531.090759,330.558960 533.267822,329.995178 535.882568,329.962952 
	C541.268738,329.896545 546.656311,329.942963 552.064270,329.942963 
	C552.064270,327.552216 552.064270,325.943665 552.122620,323.920166 
	C554.660583,330.166046 554.154358,330.947601 547.363647,330.951538 
	C543.889832,330.953522 540.400208,330.771393 536.950195,331.059998 
	C535.643433,331.169342 534.427856,332.368347 533.043030,333.522125 
z"/>
<path fill="#C2AC93" opacity="1.000000" stroke="none" 
	d="
M144.581085,223.923431 
	C141.417374,229.825470 137.973236,235.870102 134.440186,241.862320 
	C133.401993,243.623108 132.111740,245.235275 130.609131,246.981369 
	C134.943069,239.380127 139.604889,231.713089 144.581085,223.923431 
z"/>
<path fill="#564939" opacity="1.000000" stroke="none" 
	d="
M550.312927,319.751221 
	C542.323242,315.262329 537.603088,315.686523 530.187622,321.940369 
	C534.435303,314.785645 543.882019,313.583801 550.312927,319.751221 
z"/>
<path fill="#C2AC93" opacity="1.000000" stroke="none" 
	d="
M344.733673,481.677124 
	C343.768433,482.689117 342.570068,483.921356 341.130798,484.356384 
	C335.627197,486.019775 330.046112,487.426697 324.059845,488.859680 
	C330.547150,486.370392 337.468536,483.950806 344.733673,481.677124 
z"/>
<path fill="#C2AC93" opacity="1.000000" stroke="none" 
	d="
M183.025345,469.354980 
	C188.937134,472.658661 194.924393,476.292114 200.990051,480.231445 
	C195.079239,476.919800 189.090027,473.302246 183.025345,469.354980 
z"/>
<path fill="#1F1F1F" opacity="1.000000" stroke="none" 
	d="
M181.062790,320.203186 
	C182.354294,319.491913 183.645813,318.780640 185.315674,318.557678 
	C185.554993,320.271729 185.415985,321.497528 185.276978,322.723297 
	C185.323334,323.644928 185.369705,324.566559 184.802567,325.724426 
	C182.393448,325.629211 180.597870,325.297760 178.802277,324.966278 
	C178.827789,324.137543 178.853287,323.308807 179.393204,322.204773 
	C180.292679,321.354065 180.677734,320.778625 181.062790,320.203186 
z"/>
<path fill="#C2AC93" opacity="1.000000" stroke="none" 
	d="
M400.678650,447.099823 
	C396.516693,451.009857 392.008759,454.960114 387.134216,458.892578 
	C391.289307,454.963226 395.810974,451.051636 400.678650,447.099823 
z"/>
<path fill="#C2AC93" opacity="1.000000" stroke="none" 
	d="
M362.695374,473.344299 
	C357.999664,475.956787 352.943146,478.502075 347.504822,481.050293 
	C352.193573,478.461182 357.264069,475.869110 362.695374,473.344299 
z"/>
<path fill="#C2AC93" opacity="1.000000" stroke="none" 
	d="
M140.585480,409.711884 
	C138.036469,405.572449 135.534592,401.082275 133.069778,396.201172 
	C135.615433,400.327209 138.124023,404.844177 140.585480,409.711884 
z"/>
<path fill="#C2AC93" opacity="1.000000" stroke="none" 
	d="
M391.039673,191.604935 
	C387.110809,188.971146 383.091064,186.010666 379.000946,182.746796 
	C382.936646,185.388351 386.942688,188.333298 391.039673,191.604935 
z"/>
<path fill="#C2AC93" opacity="1.000000" stroke="none" 
	d="
M129.679962,408.244690 
	C132.516556,412.371826 135.232254,416.819031 137.979248,421.618713 
	C135.193359,417.502350 132.376221,413.033569 129.679962,408.244690 
z"/>
<path fill="#493C2C" opacity="1.000000" stroke="none" 
	d="
M473.759705,323.644714 
	C471.849274,323.977936 470.111908,323.977936 468.181335,323.977936 
	C469.472961,319.117554 470.198059,318.586029 473.901306,319.845734 
	C474.025452,320.678589 474.098145,320.877441 474.170868,321.076294 
	C474.091492,321.821381 474.012115,322.566437 473.759705,323.644714 
z"/>
<path fill="#CBC3B8" opacity="1.000000" stroke="none" 
	d="
M429.030457,241.360596 
	C429.316376,240.748184 429.640045,240.490021 430.140198,239.966827 
	C432.093323,242.523422 433.869965,245.345047 435.646606,248.166656 
	C435.267303,248.477722 434.887970,248.788773 434.508667,249.099838 
	C431.428009,247.822556 430.642822,244.399780 429.030457,241.360596 
z"/>
<path fill="#C2AC93" opacity="1.000000" stroke="none" 
	d="
M150.445938,439.252411 
	C153.307816,441.765381 156.115250,444.604523 158.920456,447.802490 
	C156.075989,445.300415 153.233749,442.439514 150.445938,439.252411 
z"/>
<path fill="#C2AC93" opacity="1.000000" stroke="none" 
	d="
M168.164459,457.284515 
	C171.057755,459.330841 173.996902,461.710785 176.992493,464.410889 
	C174.102737,462.360046 171.156540,459.989105 168.164459,457.284515 
z"/>
<path fill="#C2AC93" opacity="1.000000" stroke="none" 
	d="
M384.767273,459.656555 
	C382.287262,461.831177 379.490173,463.891876 376.337006,465.971069 
	C378.803986,463.840576 381.627106,461.691589 384.767273,459.656555 
z"/>
<path fill="#282828" opacity="1.000000" stroke="none" 
	d="
M185.548721,322.394470 
	C185.415985,321.497528 185.554993,320.271729 185.695358,318.580872 
	C185.696716,318.115784 185.680450,317.839966 186.108673,317.849182 
	C187.011795,317.872589 187.486694,317.886749 187.961594,317.900909 
	C189.894913,318.809540 191.828232,319.718170 193.895966,320.909790 
	C191.293732,321.483734 188.557098,321.774689 185.548721,322.394470 
z"/>
<path fill="#C2AC93" opacity="1.000000" stroke="none" 
	d="
M377.954315,181.652878 
	C375.723663,180.629684 373.396576,179.287018 371.009399,177.618225 
	C373.252167,178.639206 375.555023,179.986298 377.954315,181.652878 
z"/>
<path fill="#564939" opacity="1.000000" stroke="none" 
	d="
M546.515808,343.530487 
	C544.028381,346.343536 541.138550,345.425262 538.106567,343.113403 
	C540.670227,343.088593 543.381836,343.351532 546.515808,343.530487 
z"/>
<path fill="#C2AC93" opacity="1.000000" stroke="none" 
	d="
M159.878387,436.691895 
	C157.965897,434.926849 156.009232,432.822418 154.025543,430.369507 
	C155.943756,432.131531 157.889008,434.242035 159.878387,436.691895 
z"/>
<path fill="#C2AC93" opacity="1.000000" stroke="none" 
	d="
M138.428558,423.261383 
	C140.290955,425.101593 142.105713,427.275452 143.915771,429.811646 
	C142.067673,427.980988 140.224289,425.788025 138.428558,423.261383 
z"/>
<path fill="#C2AC93" opacity="1.000000" stroke="none" 
	d="
M144.339386,431.285461 
	C146.222031,433.074310 148.082962,435.204742 149.961884,437.685028 
	C148.092468,435.898956 146.205078,433.763000 144.339386,431.285461 
z"/>
<path fill="#C2AC93" opacity="1.000000" stroke="none" 
	d="
M407.307404,448.830383 
	C408.725708,446.689453 410.476624,444.502136 412.504822,442.166565 
	C411.068085,444.273499 409.354034,446.528748 407.307404,448.830383 
z"/>
<path fill="#C2AC93" opacity="1.000000" stroke="none" 
	d="
M197.870132,468.700134 
	C195.682526,467.729462 193.416428,466.438995 191.041382,464.875732 
	C193.218826,465.862091 195.505234,467.121216 197.870132,468.700134 
z"/>
<path fill="#282828" opacity="1.000000" stroke="none" 
	d="
M178.740234,325.249573 
	C180.597870,325.297760 182.393448,325.629211 184.550659,325.977295 
	C182.834259,325.840179 180.756210,325.686523 178.740234,325.249573 
z"/>
<path fill="#C2AC93" opacity="1.000000" stroke="none" 
	d="
M132.250031,392.729370 
	C131.063904,390.919708 130.030624,388.794434 129.019684,386.296570 
	C130.162308,388.087250 131.282593,390.250488 132.250031,392.729370 
z"/>
<path fill="#C2AC93" opacity="1.000000" stroke="none" 
	d="
M321.749878,488.768616 
	C319.840851,489.634766 317.677032,490.291046 315.098083,490.884766 
	C316.953613,490.067749 319.224365,489.313263 321.749878,488.768616 
z"/>
<path fill="#C2AC93" opacity="1.000000" stroke="none" 
	d="
M149.629776,217.000000 
	C148.593536,218.911865 147.231552,220.907608 145.554977,222.971725 
	C146.594940,221.054688 147.949478,219.069290 149.629776,217.000000 
z"/>
<path fill="#C2AC93" opacity="1.000000" stroke="none" 
	d="
M161.316315,451.269440 
	C162.860275,452.246399 164.392502,453.551727 166.003250,455.138062 
	C164.489365,454.145355 162.896973,452.871552 161.316315,451.269440 
z"/>
<path fill="#C2AC93" opacity="1.000000" stroke="none" 
	d="
M401.296509,454.871582 
	C402.385376,453.292908 403.806183,451.673828 405.559387,450.016357 
	C404.470673,451.595673 403.049591,453.213409 401.296509,454.871582 
z"/>
<path fill="#C2AC93" opacity="1.000000" stroke="none" 
	d="
M176.940369,453.670807 
	C175.350159,452.652557 173.703339,451.304352 171.998718,449.643646 
	C173.588547,450.667694 175.236160,452.004272 176.940369,453.670807 
z"/>
<path fill="#564939" opacity="1.000000" stroke="none" 
	d="
M528.643005,323.966125 
	C528.469421,326.003754 528.036377,328.238373 527.332275,330.725891 
	C527.502014,328.706940 527.942749,326.435028 528.643005,323.966125 
z"/>
<path fill="#C2AC93" opacity="1.000000" stroke="none" 
	d="
M369.735596,469.461975 
	C368.303253,470.673157 366.533020,471.817047 364.412506,472.992218 
	C365.840698,471.813934 367.619202,470.604309 369.735596,469.461975 
z"/>
<path fill="#564939" opacity="1.000000" stroke="none" 
	d="
M551.206543,344.458008 
	C551.059692,343.805908 551.179077,343.010773 551.072937,342.061890 
	C551.711975,341.838318 552.576477,341.768494 553.441040,341.698669 
	C552.784912,342.570770 552.128784,343.442871 551.206543,344.458008 
z"/>
<path fill="#C2AC93" opacity="1.000000" stroke="none" 
	d="
M111.017593,311.366272 
	C111.273071,312.970520 111.273399,314.853668 111.006393,316.893158 
	C110.746857,315.248047 110.754654,313.446594 111.017593,311.366272 
z"/>
<path fill="#C2AC93" opacity="1.000000" stroke="none" 
	d="
M144.814758,416.684418 
	C143.566864,415.249054 142.308609,413.466156 141.032410,411.327484 
	C142.277771,412.760101 143.541092,414.548492 144.814758,416.684418 
z"/>
<path fill="#C2AC93" opacity="1.000000" stroke="none" 
	d="
M307.249878,500.346741 
	C308.779510,499.778870 310.604553,499.408722 312.864868,499.102844 
	C311.381897,499.626251 309.463623,500.085358 307.249878,500.346741 
z"/>
<path fill="#C2AC93" opacity="1.000000" stroke="none" 
	d="
M148.412811,421.776733 
	C147.237213,420.861664 146.163559,419.638947 145.121368,418.066101 
	C146.273468,418.967041 147.394104,420.218048 148.412811,421.776733 
z"/>
<path fill="#C2AC93" opacity="1.000000" stroke="none" 
	d="
M110.733223,340.250183 
	C111.194275,341.455322 111.452133,342.928741 111.485992,344.656555 
	C111.018005,343.446777 110.774017,341.982605 110.733223,340.250183 
z"/>
<path fill="#C2AC93" opacity="1.000000" stroke="none" 
	d="
M177.897659,465.425293 
	C179.168228,466.059723 180.547577,467.007721 181.997894,468.262115 
	C180.714722,467.625275 179.360565,466.682068 177.897659,465.425293 
z"/>
<path fill="#C2AC93" opacity="1.000000" stroke="none" 
	d="
M112.079453,303.363312 
	C112.287888,304.679047 112.220253,306.240540 111.876190,307.929626 
	C111.667633,306.574524 111.735504,305.091797 112.079453,303.363312 
z"/>
<path fill="#CBC3B8" opacity="1.000000" stroke="none" 
	d="
M477.809998,328.832825 
	C476.535461,329.675995 475.063507,330.285004 473.243530,330.827423 
	C474.467834,330.040131 476.040222,329.319397 477.809998,328.832825 
z"/>
<path fill="#C2AC93" opacity="1.000000" stroke="none" 
	d="
M126.675186,402.239624 
	C127.531586,403.087067 128.251434,404.231995 128.979645,405.697571 
	C128.171539,404.857819 127.355095,403.697449 126.675186,402.239624 
z"/>
<path fill="#C2AC93" opacity="1.000000" stroke="none" 
	d="
M111.524902,349.278381 
	C112.012810,350.113403 112.352463,351.286926 112.485214,352.683716 
	C111.977768,351.810272 111.677208,350.713593 111.524902,349.278381 
z"/>
<path fill="#C2AC93" opacity="1.000000" stroke="none" 
	d="
M189.943466,463.679810 
	C189.032745,463.385162 188.059753,462.773987 187.003021,461.888062 
	C187.906601,462.196625 188.893906,462.779938 189.943466,463.679810 
z"/>
<path fill="#C2AC93" opacity="1.000000" stroke="none" 
	d="
M185.939270,460.679260 
	C185.027023,460.380402 184.053177,459.764862 182.998383,458.870422 
	C183.904175,459.181854 184.890930,459.772217 185.939270,460.679260 
z"/>
<path fill="#C2AC93" opacity="1.000000" stroke="none" 
	d="
M171.073456,448.598389 
	C170.135345,448.162842 169.101089,447.412506 168.044205,446.309570 
	C169.006821,446.732513 169.992050,447.508057 171.073456,448.598389 
z"/>
<path fill="#C2AC93" opacity="1.000000" stroke="none" 
	d="
M112.661873,357.239014 
	C113.119354,357.796478 113.412498,358.652222 113.521439,359.697876 
	C113.057343,359.104340 112.777443,358.320801 112.661873,357.239014 
z"/>
<path fill="#564939" opacity="1.000000" stroke="none" 
	d="
M526.955505,334.266113 
	C527.359131,334.953369 527.637146,335.881653 527.847290,337.195862 
	C527.462891,336.556915 527.146423,335.532013 526.955505,334.266113 
z"/>
<path fill="#CBC3B8" opacity="1.000000" stroke="none" 
	d="
M479.958771,319.617462 
	C480.808777,319.695709 481.750458,320.074982 482.771332,320.772949 
	C481.917145,320.700562 480.983826,320.309540 479.958771,319.617462 
z"/>
<path fill="#CBC3B8" opacity="1.000000" stroke="none" 
	d="
M474.485474,321.050964 
	C474.098145,320.877441 474.025452,320.678589 473.949524,320.161926 
	C474.792664,319.569336 475.639008,319.294556 476.800354,319.143982 
	C476.343597,319.853973 475.571838,320.439789 474.485474,321.050964 
z"/>
<path fill="#564939" opacity="1.000000" stroke="none" 
	d="
M533.071167,345.264648 
	C533.622131,345.354156 534.271667,345.697449 534.975342,346.334198 
	C534.409546,346.257904 533.789612,345.888153 533.071167,345.264648 
z"/>
<path fill="#C2AC93" opacity="1.000000" stroke="none" 
	d="
M113.067963,297.207336 
	C113.351654,297.628845 113.425056,298.176208 113.289200,298.849609 
	C113.005859,298.428162 112.931770,297.880707 113.067963,297.207336 
z"/>
<path fill="#282828" opacity="1.000000" stroke="none" 
	d="
M180.790695,320.246735 
	C180.677734,320.778625 180.292679,321.354065 179.632904,321.974701 
	C179.744995,321.443359 180.131805,320.866821 180.790695,320.246735 
z"/>
<path fill="#CBC3B8" opacity="1.000000" stroke="none" 
	d="
M481.865417,327.815735 
	C481.489838,328.323883 480.975464,328.613617 480.168335,328.792908 
	C480.492615,328.320801 481.109619,327.959076 481.865417,327.815735 
z"/>
<path fill="#564939" opacity="1.000000" stroke="none" 
	d="
M534.063354,337.752289 
	C533.697754,337.380188 533.382690,336.736145 533.127136,335.802490 
	C533.495728,336.168701 533.804810,336.824524 534.063354,337.752289 
z"/>
<path fill="#564939" opacity="1.000000" stroke="none" 
	d="
M536.802490,341.760254 
	C536.272217,341.556793 535.660400,341.074066 535.035034,340.269348 
	C535.588074,340.458557 536.154480,340.969788 536.802490,341.760254 
z"/>
<path fill="#CBC3B8" opacity="1.000000" stroke="none" 
	d="
M197.041687,317.479370 
	C196.496429,317.695282 195.917435,317.641083 195.167358,317.336792 
	C195.666824,317.127563 196.337372,317.168427 197.041687,317.479370 
z"/>
<path fill="#C2AC93" opacity="1.000000" stroke="none" 
	d="
M180.775391,456.776642 
	C180.227219,456.720917 179.649841,456.368469 179.000275,455.764771 
	C179.534103,455.835632 180.140152,456.157745 180.775391,456.776642 
z"/>
<path fill="#564939" opacity="1.000000" stroke="none" 
	d="
M549.552002,345.187897 
	C549.752380,344.903900 550.032654,344.851807 550.471313,344.869690 
	C550.283569,345.037994 549.951050,345.198059 549.552002,345.187897 
z"/>
<path fill="#C2AC93" opacity="1.000000" stroke="none" 
	d="
M374.763245,466.378906 
	C374.550781,466.937225 374.039856,467.445679 373.228516,467.959167 
	C373.440338,467.419189 373.952576,466.874115 374.763245,466.378906 
z"/>
<path fill="#564939" opacity="1.000000" stroke="none" 
	d="
M537.840210,347.263428 
	C538.105469,347.071869 538.555115,346.999390 539.228577,346.968079 
	C538.976501,347.133698 538.500549,347.258148 537.840210,347.263428 
z"/>
<path fill="#CBC3B8" opacity="1.000000" stroke="none" 
	d="
M188.031830,317.714630 
	C187.486694,317.886749 187.011795,317.872589 186.198532,317.744202 
	C186.505951,317.307983 187.151733,316.985931 187.914337,316.900208 
	C188.031158,317.136536 188.102081,317.528351 188.031830,317.714630 
z"/>
<path fill="#C2AC93" opacity="1.000000" stroke="none" 
	d="
M150.434387,424.793518 
	C149.905457,424.598633 149.457275,424.121796 148.982880,423.377625 
	C149.476151,423.577362 149.995636,424.044495 150.434387,424.793518 
z"/>
<path fill="#C2AC93" opacity="1.000000" stroke="none" 
	d="
M163.665314,440.758209 
	C163.112640,440.610474 162.570786,440.165039 161.985504,439.437439 
	C162.520111,439.590363 163.098145,440.025452 163.665314,440.758209 
z"/>
<path fill="#CBC3B8" opacity="1.000000" stroke="none" 
	d="
M195.089706,347.165283 
	C195.201797,346.951324 195.394211,346.895172 195.810303,347.039795 
	C195.745987,347.268036 195.458023,347.295563 195.089706,347.165283 
z"/>
<path fill="#F2F0EB" opacity="1.000000" stroke="none" 
	d="
M430.787476,321.113678 
	C437.133789,325.934509 438.653503,335.558136 433.693634,341.118256 
	C431.941895,343.082031 428.709839,344.153107 425.969635,344.686676 
	C423.248657,345.216431 421.299072,343.750732 421.471313,340.347107 
	C421.672668,336.368530 421.503387,332.371368 421.501862,328.382263 
	C421.499054,321.131348 423.143524,319.771820 430.787476,321.113678 
z"/>
<path fill="#3B2A14" opacity="1.000000" stroke="none" 
	d="
M420.021423,332.033142 
	C420.021149,338.930237 420.021149,345.341583 420.021149,352.595062 
	C416.295197,349.519958 415.942017,322.486847 418.534576,318.458038 
	C419.030273,318.428009 419.525970,318.397980 420.021667,318.367950 
	C420.021667,322.761078 420.021667,327.154236 420.021423,332.033142 
z"/>
<path fill="#3B2A14" opacity="1.000000" stroke="none" 
	d="
M417.492615,358.399963 
	C417.664001,357.126648 418.091217,356.125702 418.518433,355.124756 
	C419.211151,355.912262 419.903900,356.699768 420.596619,357.487274 
	C419.647247,357.882294 418.697845,358.277313 417.492615,358.399963 
z"/>
<path fill="#F4F4F4" opacity="1.000000" stroke="none" 
	d="
M246.663544,326.032227 
	C248.329468,324.190521 249.574600,322.227417 251.358627,321.290863 
	C257.186127,318.231720 260.335144,320.231750 260.331787,326.654572 
	C260.329193,331.624847 260.171814,336.601074 260.370270,341.563171 
	C260.494293,344.664551 258.972351,345.624115 256.279236,345.885284 
	C251.512100,346.347595 247.374619,344.279968 246.449234,339.486755 
	C245.636597,335.277649 246.414246,330.761444 246.663544,326.032227 
z"/>
<path fill="#020202" opacity="1.000000" stroke="none" 
	d="
M262.422028,361.946289 
	C261.621429,361.763611 260.799408,361.573425 260.804749,361.410309 
	C261.132751,351.391235 261.567963,341.375732 261.897614,331.356689 
	C262.022339,327.565918 261.917877,323.767578 261.917877,319.424744 
	C264.708557,318.099243 265.079407,320.163605 265.075317,322.830292 
	C265.058960,333.494049 265.025299,344.158173 265.104248,354.821320 
	C265.120850,357.061737 265.587158,359.298828 265.877472,361.807343 
	C265.055328,361.845673 263.921021,361.898560 262.422028,361.946289 
z"/>
<path fill="#E8E8E8" opacity="1.000000" stroke="none" 
	d="
M350.451263,324.851624 
	C349.908295,326.504974 349.342255,328.790802 348.540955,328.876465 
	C344.857635,329.270416 341.108551,329.049988 337.269318,329.049988 
	C336.978363,324.156860 339.680969,321.107666 343.014496,320.434601 
	C345.093262,320.014923 347.861206,323.008820 350.451263,324.851624 
z"/>
<path fill="#E8E8E8" opacity="1.000000" stroke="none" 
	d="
M476.323303,344.163696 
	C471.203613,342.295319 470.685242,339.030762 473.364563,334.533508 
	C476.844086,332.927643 480.116669,331.666504 483.520447,330.354797 
	C485.446472,340.838226 484.693420,342.215973 476.323303,344.163696 
z"/>
<path fill="#E8E8E8" opacity="1.000000" stroke="none" 
	d="
M540.961792,327.943329 
	C538.255676,327.943024 535.999390,327.943024 533.708862,327.943024 
	C534.093262,322.067963 536.809937,318.995514 540.988220,319.064026 
	C544.981689,319.129517 546.799622,321.729828 546.615906,327.943634 
	C544.902344,327.943634 543.156921,327.943634 540.961792,327.943329 
z"/>
<path fill="#BA9D7B" opacity="1.000000" stroke="none" 
	d="
M400.968597,208.033798 
	C401.189972,207.535400 401.420715,206.990005 401.726166,206.490265 
	C401.758636,206.437134 402.228241,206.651154 402.495056,206.741257 
	C402.170868,207.144226 401.846680,207.547211 401.227386,208.006378 
	C400.932281,208.062592 400.999542,208.000000 400.968597,208.033798 
z"/>
<path fill="#E8E8E8" opacity="1.000000" stroke="none" 
	d="
M195.724274,342.932190 
	C193.968079,344.060150 192.348877,344.876434 190.656082,345.489502 
	C187.833527,346.511780 184.899445,346.110718 184.198486,343.065613 
	C183.711639,340.950592 184.321289,337.445160 185.799957,336.268219 
	C188.357895,334.232178 191.970764,333.521484 195.509888,332.259857 
	C195.861847,335.686279 195.845032,339.107697 195.724274,342.932190 
z"/>
<path fill="#BA9D7B" opacity="1.000000" stroke="none" 
	d="
M418.798401,431.186768 
	C419.095520,431.741669 419.092773,432.235901 419.090027,432.730133 
	C418.549377,432.591309 418.008728,432.452484 417.468079,432.313660 
	C417.811523,431.917786 418.155029,431.521912 418.798401,431.186768 
z"/>
</svg>